<svg t="1717473051147" class="icon" viewBox="0 0 1024 1024" version="1.1" xmlns="http://www.w3.org/2000/svg" p-id="2481" width="200" height="200"><path d="M264.533333 762.666667c33.066667 0 60.8-27.733333 60.8-60.8s-27.733333-60.8-60.8-60.8-60.8 27.733333-60.8 60.8c0 34.133333 26.666667 60.8 60.8 60.8z m0-96c19.2 0 35.2 16 35.2 35.2s-16 35.2-35.2 35.2c-19.2 0-35.2-16-35.2-35.2s16-35.2 35.2-35.2z" fill="#787878" p-id="2482"></path><path d="M985.6 804.266667l-10.666667-61.866667c-10.666667-64-51.2-118.4-108.8-147.2L803.2 544l-27.733333 6.4v-73.6c9.6-10.666667 16-22.4 21.333333-36.266667l26.666667-72.533333 14.933333-20.266667V179.2c0-38.4-30.933333-70.4-69.333333-70.4h-128c-26.666667 0-49.066667 19.2-55.466667 43.733333h-2.133333c-27.733333 0-51.2 22.4-51.2 51.2v145.066667l19.2 21.333333 21.333333 66.133334c5.333333 14.933333 12.8 28.8 23.466667 40.533333v71.466667l-21.333334-5.333334-61.866666 50.133334-21.333334 6.4-3.2-19.2c-5.333333-25.6-27.733333-44.8-54.4-44.8h-373.333333c-10.666667 0-20.266667 4.266667-26.666667 12.8-6.4 7.466667-9.6 18.133333-7.466666 27.733333l53.333333 277.333333v39.466667c0 16 12.8 28.8 28.8 28.8h529.066667c20.266667 0 37.333333-11.733333 44.8-28.8h225.066666c23.466667 0 44.8-9.6 59.733334-27.733333s22.4-38.4 18.133333-60.8zM835.2 602.666667l-87.466667 42.666666L704 608v-16l92.8-20.266667 38.4 30.933334zM598.4 427.733333l-13.866667-41.6h93.866667v-45.866666h18.133333v45.866666H789.333333l-17.066666 44.8c-13.866667 36.266667-48 60.8-86.4 60.8-39.466667 0-74.666667-25.6-87.466667-64z m166.4-185.6c5.333333 0 9.6 4.266667 9.6 9.6v28.8c0 7.466667 2.133333 14.933333 5.333333 21.333334h-82.133333v12.8h-18.133333v-12.8H597.333333c3.2-5.333333 5.333333-12.8 5.333334-19.2v-18.133334c0-14.933333 11.733333-26.666667 26.666666-26.666666h64l49.066667-27.733334v32h22.4z m10.666667 85.333334v33.066666h-51.2v-33.066666h51.2z m-121.6 0v33.066666h-51.2v-33.066666h51.2z m148.266666 27.733333l-1.066666 3.2v-35.2c4.266667 2.133333 8.533333 3.2 13.866666 4.266667v11.733333l-12.8 16zM558.933333 203.733333c0-13.866667 11.733333-25.6 25.6-25.6h25.6v-12.8c0-17.066667 13.866667-30.933333 30.933334-30.933333h128c24.533333 0 43.733333 20.266667 43.733333 43.733333v121.6c-8.533333-3.2-14.933333-10.666667-14.933333-20.266666v-28.8c0-18.133333-13.866667-33.066667-32-35.2v-50.133334l-82.133334 45.866667H629.333333c-28.8 0-52.266667 23.466667-52.266666 52.266667v18.133333c0 7.466667-6.4 13.866667-13.866667 13.866667h-4.266667v-91.733334z m0 134.4v-17.066666h4.266667c4.266667 0 8.533333-1.066667 12.8-2.133334v39.466667l-1.066667-3.2-16-17.066667z m64 160c18.133333 11.733333 40.533333 18.133333 64 18.133334s44.8-6.4 64-19.2v56.533333l-60.8 13.866667-66.133333-14.933334v-54.4z m-40.533333 72.533334l92.8 20.266666V608l-43.733333 37.333333-87.466667-42.666666 38.4-32z m-528-4.266667c1.066667-1.066667 3.2-3.2 6.4-3.2h374.4c13.866667 0 26.666667 9.6 28.8 23.466667L512 841.6H103.466667L52.266667 572.8c0-3.2 1.066667-5.333333 2.133333-6.4zM597.333333 841.6h-58.666666l-3.2-13.866667c12.8-21.333333 44.8-20.266667 60.8-18.133333v32z m65.066667 32c0 13.866667-10.666667 24.533333-24.533333 24.533333H108.8c-1.066667 0-3.2-1.066667-3.2-3.2v-28.8H661.333333v7.466667z m285.866667-22.4c-9.6 11.733333-24.533333 19.2-40.533334 19.2H688v-28.8h-65.066667v-60.8h236.8v-25.6H597.333333v27.733333c-17.066667-2.133333-45.866667-1.066667-67.2 13.866667l-32-169.6 21.333334-6.4 116.266666 57.6 54.4-46.933333 54.4 46.933333 115.2-56.533333c48 25.6 82.133333 72.533333 90.666667 125.866666l10.666667 61.866667c2.133333 13.866667-2.133333 29.866667-12.8 41.6z" fill="#787878" p-id="2483"></path></svg>