<svg t="1717474329745" class="icon" viewBox="0 0 1024 1024" version="1.1" xmlns="http://www.w3.org/2000/svg" p-id="15291" width="200" height="200">
  <path d="M512 0C229.205333 0 0 229.205333 0 512s229.205333 512 512 512 512-229.205333 512-512S794.794667 0 512 0z m311.082667 823.082667a437.717333 437.717333 0 0 1-139.904 94.293333c-54.186667 23.04-111.786667 34.602667-171.178667 34.602667-59.392 0-116.992-11.562667-171.221333-34.474667a440.448 440.448 0 0 1-139.861334-94.293333 437.717333 437.717333 0 0 1-94.293333-139.946667A436.608 436.608 0 0 1 71.936 512c0-59.392 11.605333-116.992 34.56-171.221333a440.448 440.448 0 0 1 94.293333-139.861334 437.717333 437.717333 0 0 1 139.861334-94.293333c54.314667-23.04 111.914667-34.645333 171.306666-34.645333 59.392 0 116.992 11.605333 171.178667 34.56 52.437333 22.186667 99.413333 53.845333 139.946667 94.293333 40.362667 40.362667 72.192 87.466667 94.293333 139.861333 22.997333 54.314667 34.56 111.914667 34.56 171.306667a437.461333 437.461333 0 0 1-128.853333 311.082667z m-182.784-257.877334a35.968 35.968 0 0 0-36.010667 36.010667c0 50.901333-41.386667 92.288-92.288 92.288a92.416 92.416 0 0 1-92.288-92.288 35.968 35.968 0 1 0-72.021333 0A164.48 164.48 0 0 0 512 765.44a164.48 164.48 0 0 0 164.266667-164.266667 35.968 35.968 0 0 0-35.968-36.010666zM194.218667 382.421333a59.989333 59.989333 0 1 0 119.978666 0 59.989333 59.989333 0 0 0-119.978666 0z m515.285333 0a59.989333 59.989333 0 1 0 119.978667 0 59.989333 59.989333 0 0 0-119.978667 0z" fill="#787878" p-id="15292"></path>
</svg>