<svg t="1717474065259" class="icon" viewBox="0 0 1024 1024" version="1.1" xmlns="http://www.w3.org/2000/svg" p-id="5499" width="200" height="200">
   <path d="M511.809665 64.024176c-247.744477 0-448.581622 200.290699-448.581622 447.360817s200.837144 447.360817 448.581622 447.360817 448.581622-200.290699 448.581622-447.360817S759.554142 64.024176 511.809665 64.024176zM511.809665 935.931199c-235.109716 0-425.704588-190.076056-425.704588-424.546206S276.699949 86.838787 511.809665 86.838787s425.704588 190.076056 425.704588 424.546206S746.919381 935.931199 511.809665 935.931199z" p-id="5500" fill="#787878"></path>
   <path d="M601.098247 555.651173l-178.556699 0c-5.305843 0-9.607822 4.301979-9.607822 9.609869l0 3.098571c0 5.305843 4.301979 9.606799 9.607822 9.606799l178.556699 0c5.306866 0 9.607822-4.300956 9.607822-9.606799l0-3.098571C610.706069 559.953152 606.405113 555.651173 601.098247 555.651173z" p-id="5501" fill="#787878"></path>
   <path d="M600.950891 622.288872 422.689928 622.288872c-5.387707 0-9.755178 4.368494-9.755178 9.755178l0 3.108804c0 5.389754 4.367471 9.757225 9.755178 9.757225L600.950891 644.910079c5.387707 0 9.755178-4.367471 9.755178-9.757225l0-3.108804C610.706069 626.657366 606.338598 622.288872 600.950891 622.288872z" p-id="5502" fill="#787878"></path>
   <path d="M643.74658 366.475626l-43.97863 0 0-33.43653-32.983205 0c-10.883885-14.925944-31.779797-22.291702-54.973032-22.291702-23.195282 0-44.090171 7.365758-54.973032 22.291702l-32.983205 0 0 33.43653-43.979654 0c-27.756157 0-43.977607 16.891715-43.977607 44.591591l0 250.798023c0 27.699875 22.503527 50.157353 50.261731 50.157353L637.462456 712.022593c27.758204 0 50.261731-22.457478 50.261731-50.157353L687.724187 411.067216C687.724187 383.367341 671.50376 366.475626 643.74658 366.475626zM445.841208 355.334891l32.985252 0c0-13.852496 13.703093-22.294772 32.983205-22.294772 19.279089 0 32.983205 8.442276 32.983205 22.294772l32.984229 0 0 55.732325L445.841208 411.067216 445.841208 355.334891zM665.735383 656.286174c0 13.852496-8.109702 33.443693-21.988804 33.443693L379.87275 689.729867c-13.878079 0-21.988804-19.590174-21.988804-33.443693L357.883947 411.067216c0-13.850449 8.110725-22.295795 21.988804-22.295795l43.979654 0 0 44.584428 175.914522 0 0-44.584428 43.97863 0c13.879102 0 21.988804 8.445346 21.988804 22.295795L665.73436 656.286174z" p-id="5503" fill="#787878"></path>
   <path d="M600.950891 489.014496 422.689928 489.014496c-5.387707 0-9.755178 4.367471-9.755178 9.755178l0 2.803859c0 5.38873 4.367471 9.756201 9.755178 9.756201L600.950891 511.329734c5.387707 0 9.755178-4.367471 9.755178-9.756201l0-2.803859C610.706069 493.381967 606.338598 489.014496 600.950891 489.014496z" p-id="5504" fill="#787878"></path>
</svg>