<svg t="1717473775499" class="icon" viewBox="0 0 1024 1024" version="1.1" xmlns="http://www.w3.org/2000/svg" p-id="1761" width="200" height="200"><path d="M267.936 686.144a41.168 41.168 0 0 0-41.136 41.136 41.168 41.168 0 0 0 41.136 41.16 41.184 41.184 0 0 0 41.136-41.16 41.176 41.176 0 0 0-41.136-41.136z m197.416 0a41.176 41.176 0 0 0-41.136 41.136 41.176 41.176 0 0 0 41.136 41.16 41.152 41.152 0 0 0 0-82.296zM366.656 365.328C184.856 365.328 37.6 512.592 37.6 694.392c0 181.776 147.256 329.04 329.048 329.04 181.776 0 329.04-147.264 329.04-329.04 0.008-181.8-147.256-329.064-329.032-329.064z m0 592.28c-145.112 0-263.248-118.112-263.248-263.216 0-9.552 0.656-18.912 1.648-28.16 77.496-34.368 139.344-97.888 171.432-176.68 59.56 83.92 157.448 139.016 268.328 139.016 25.52 0 50.344-3.136 74.04-8.72a260.192 260.192 0 0 1 11.024 74.536c-0.008 145.12-118.136 263.224-263.224 263.224zM384.64 134.24c-10.768 9.664-23.712 17.368-38.824 23.12l0.088-15.328c22.44-10.08 36.864-22.872 43.288-38.416l10.952 0.064-0.888 148.128-15.328-0.088 0.712-117.48z" fill="#787878" p-id="1762"></path><path d="M403.496 256.096l-23.856-0.144 0.68-112.624c-9.584 7.272-20.648 13.32-32.984 18.008l-5.824 2.216 0.152-24.296 2.496-1.128c21.312-9.568 35.136-21.736 41.096-36.16l1.096-2.648 18.088 0.112-0.944 156.664z m-15.28-8.624l6.792 0.048 0.84-139.592-3.896-0.024c-7.04 14.728-21.08 27.12-41.8 36.872l-0.032 6.232c12.12-5.24 22.752-11.936 31.664-19.936l7.176-6.448-0.744 122.848zM548.584 173.168l-0.088 13.864-43.048-0.264-0.264 43.056-14.6-0.088 0.256-43.048-43.04-0.264 0.08-13.864 43.04 0.256 0.264-43.04 14.6 0.088-0.264 43.048 43.064 0.256z" fill="#787878" p-id="1763"></path><path d="M509.432 234.112l-23.136-0.136 0.264-43.056-43.048-0.256 0.136-22.4 43.04 0.264 0.256-43.048 23.144 0.136-0.264 43.04 43.048 0.264-0.144 22.392-43.04-0.256-0.256 43.056z m-14.552-8.616l6.064 0.04 0.264-43.056 43.048 0.264 0.032-5.328-43.048-0.264 0.256-43.048-6.072-0.04-0.256 43.048-43.048-0.256-0.032 5.328 43.048 0.256-0.256 43.056zM620.32 135.656c-10.768 9.664-23.696 17.376-38.824 23.12l0.104-15.328c22.432-10.08 36.856-22.872 43.272-38.416l10.96 0.072-0.896 148.128-15.328-0.096 0.712-117.48z" fill="#787878" p-id="1764"></path><path d="M639.176 257.52l-23.864-0.144 0.68-112.624c-9.576 7.28-20.64 13.32-32.976 18.008l-5.824 2.216 0.152-24.296 2.504-1.128c21.312-9.568 35.128-21.736 41.088-36.16l1.088-2.648 18.096 0.112-0.944 156.664z m-15.272-8.632l6.792 0.048 0.84-139.6-3.896-0.024c-7.024 14.736-21.072 27.112-41.792 36.872l-0.04 6.232c12.12-5.232 22.744-11.928 31.656-19.936l7.168-6.448-0.728 122.856z" fill="#787878" p-id="1765"></path><path d="M683.352 210.472l0.088-13.864 97.056 0.576-0.08 13.872-97.064-0.584z m0.272-44.512l0.088-13.856 97.056 0.576-0.088 13.864-97.056-0.584z" fill="#787878" p-id="1766"></path><path d="M784.648 215.336l-105.584-0.632 0.144-22.392 105.584 0.632-0.144 22.392z m-97.008-9.112l88.52 0.536 0.048-5.328-88.52-0.544-0.048 5.336z m97.288-35.392l-105.6-0.632 0.144-22.392 105.592 0.632-0.136 22.392z m-97.016-9.12l88.528 0.528 0.024-5.32-88.52-0.528-0.032 5.32z" fill="#787878" p-id="1767"></path><path d="M853.344 217.336l-15.328-0.104 0.056-7.296c-0.416-13.616 5.984-25.008 19.168-34.176 15.144-10.128 22.032-21.024 20.64-32.712-1.864-14.12-10.576-21.96-26.136-23.512-19.944-1.088-31.928 8.816-35.944 29.704l-15.28-5.192c6.48-26.712 24.072-39.504 52.776-38.36 25.768 1.616 39.56 14.352 41.368 38.2 0.872 15.088-7.968 28.896-26.52 41.424-10.256 6.76-15.168 15.232-14.744 25.456l-0.056 6.568z m1.24 36.488l0.112-18.248-18.976-0.112-0.104 18.248 18.968 0.112z" fill="#787878" p-id="1768"></path><path d="M858.832 258.12l-27.504-0.168 0.16-26.784 27.512 0.168-0.168 26.784z m-18.936-8.656l10.456 0.072 0.048-9.704-10.44-0.064-0.064 9.696z m17.696-27.84l-23.864-0.144 0.072-11.568c-0.456-14.928 6.608-27.656 21.008-37.664 13.88-9.28 20.032-18.656 18.832-28.696-1.608-12.112-8.696-18.4-22.32-19.768a57.792 57.792 0 0 0-2.48-0.056c-16.232 0-25.4 8.36-28.848 26.32l-0.928 4.824-23.608-8.04 0.912-3.784c6.992-28.816 26.264-42.896 57.088-41.624 27.816 1.736 43.504 16.312 45.472 42.144 0.96 16.688-8.6 31.904-28.4 45.288-9.04 5.96-13.24 13.056-12.864 21.736l-0.072 11.032z m-15.28-8.632l6.792 0.048 0.016-2.304c-0.496-11.552 5.12-21.376 16.664-28.992 17.336-11.712 25.4-24.032 24.616-37.624-1.632-21.504-13.856-32.72-37.376-34.184a84.224 84.224 0 0 0-3.216-0.064c-23.296 0-37.776 10.288-44.12 31.408l7.024 2.384c5.36-19.688 18.816-29.488 39.264-28.4 17.656 1.752 28.008 11.16 30.136 27.208 1.584 13.408-5.976 25.776-22.496 36.816-11.976 8.336-17.656 18.328-17.272 30.512l-0.032 3.192z" fill="#787878" p-id="1769"></path><path d="M843.008 378.048c-26.472 0-44.488-13.496-61.904-26.544-10.944-8.2-21.28-15.936-33.352-20.176a23.576 23.576 0 0 0-7.968-1.368c-13.872 0-28.544 11.848-42.744 23.312-14.528 11.712-29.552 23.832-45.12 24.52h-0.032c-11.608 0-24.712-10.808-38.592-22.256-13.608-11.24-29.056-23.976-40.336-23.976-8.784 0.232-16.928 5.96-26.368 12.6-13.256 9.328-29.768 20.936-53.568 20.936-3.744 0-7.616-0.296-11.504-0.864-34.176-4.992-51.912-29.208-63.656-45.24-3.992-5.456-8.12-11.088-10.328-11.816-9.736-3.208-24.048 2.168-39.08 8.296-14.168 5.776-28.832 11.744-43.832 11.744a48.344 48.344 0 0 1-16.4-2.76c-28.024-16.008-24.368-44.528-21.696-65.368 1.216-9.448 2.352-18.368 0.312-23.352-2.08-5.048-10.304-8.768-19-12.696-16.728-7.552-39.632-17.896-34.864-47.68 7.096-44.296 46.432-109.184 73.84-121.824 4.952-2.28 10.408-3.392 16.688-3.392 10.784 0 22.328 3.36 33.488 6.6 15 4.352 30.92 8.344 41.768 4.632 17.416-5.992 33.368-18.872 46.192-29.224 6.912-5.592 12.88-10.408 18.344-13.712 33.032-19.968 57.528-20.056 70.592-1.208 17.568 25.368 32.408 39.432 57.792 37.712 14.496-0.992 35.4-14.688 55.608-27.928C665.424 15.128 682.552 3.904 695.816 1.216c2.096-0.424 4.344-0.64 6.696-0.64 15.96 0 34.64 9.744 52.712 19.168 13.832 7.216 26.888 14.016 35.88 14.752 9.792 0.84 24.136-6.12 39.52-13.448 18.312-8.704 39.056-18.584 57.968-18.584 5.368 0 10.416 0.808 15.024 2.376 53.912 23.88 70 114.24 71.68 147.048 0.632 12.4-1.68 59.112-19.984 109.264-22.08 60.44-58.992 100.752-106.76 116.568l-1.104 0.208c-1.496 0.08-2.976 0.12-4.44 0.12z m-103.224-56.624c3.68 0 7.32 0.624 10.8 1.848 13.304 4.672 24.656 13.176 35.64 21.4 17.864 13.392 34.8 26.008 60.192 24.76 106.752-35.848 121.832-188.496 120.376-217.12-1.608-31.352-16.64-117.536-66.272-139.544a38.024 38.024 0 0 0-11.912-1.784c-16.976 0-36.808 9.432-54.296 17.752-16.52 7.864-32.104 15.24-43.88 14.256-10.72-0.88-24.52-8.08-39.136-15.688-18.456-9.616-40.136-20.488-53.776-17.728-11.656 2.36-28.88 13.656-45.552 24.576C630.832 48 608.984 62.32 592.256 63.456c-32.32 2.184-50.08-19.264-65.392-41.376-10.48-15.152-30.704-13.52-59.152 3.664-4.968 3-10.736 7.664-17.408 13.048-13.336 10.776-29.944 24.176-48.784 30.648-13.032 4.48-30.648 0.24-46.928-4.496-16.144-4.696-33.16-8.744-44.216-3.656-24.976 11.504-62.368 74.064-68.992 115.416-3.744 23.336 13.384 31.072 29.952 38.552 10.296 4.64 20.016 9.032 23.384 17.224 2.904 7.064 1.68 16.624 0.256 27.68-2.624 20.496-5.608 43.712 16.8 56.56 3.552 1.208 7.976 1.952 12.84 1.952 13.328 0 27.2-5.656 40.616-11.12 12.568-5.12 24.448-9.96 35.36-9.96 3.432 0 6.664 0.496 9.616 1.472 4.792 1.584 8.872 7.16 14.52 14.872 10.904 14.88 27.368 37.376 58 41.84 3.488 0.512 6.944 0.768 10.28 0.768 21.104 0 35.744-10.296 48.656-19.376 10.128-7.12 19.688-13.84 30.64-14.144h0.016c14.992 0 30.96 13.168 46.4 25.912 12.112 9.992 24.624 20.328 32.456 20.328 13.12-0.584 27.032-11.8 40.496-22.656 15.36-12.376 31.232-25.184 48.112-25.184z" fill="#787878" p-id="1770"></path></svg>